<svg width="88" height="85" viewBox="0 0 88 85" fill="none" xmlns="http://www.w3.org/2000/svg">
<path d="M0 33.5195C0 33.5195 3.56565 33.4102 4.13647 33.2073C4.74638 33.0044 5.24684 32.7312 5.63781 32.3956C6.02878 32.0601 6.45102 31.6542 6.92801 31.186C7.49882 30.4524 9.27383 28.1033 9.89939 27.2526L10.0949 25.2625C9.89157 25.0752 7.23296 23.9046 2.84627 25.1845L1.57953 29.1569L7.47536 28.9852C7.47536 28.9852 1.8532 31.7479 0.140744 32.8483L0 33.5195Z" fill="#00FF99"/>
<path d="M76.7945 0L56.9566 9.56807L55.4553 12.9629L75.692 3.0827L76.7945 0Z" fill="#00FF99"/>
<path d="M15.1697 20.7516L21.9726 25.5513L25.0925 21.3057L31.0978 25.5513L35.4845 19.5888L28.5565 14.5472L25.5226 18.9801L19.4313 14.5472L15.1697 20.7516Z" fill="#00FF99"/>
<path d="M18.5789 58.9303C11.5102 58.9303 9.5866 56.8543 7.86633 54.7862C6.928 53.6858 6.31027 52.2576 6.01313 50.5094C5.6378 48.3086 6.27116 45.8425 7.91324 43.1109L7.82723 42.8612C6.97491 43.9772 6.10696 45.304 5.21554 46.8258C3.87842 49.1203 2.88536 51.4694 2.24416 53.8653C1.59515 56.2612 1.44658 58.462 1.79064 60.4755C2.06431 62.0832 2.79153 63.6129 3.97226 65.0644C6.09914 67.7023 9.32856 69.31 13.6605 69.8953C15.9516 70.2075 18.618 70.106 21.6598 69.5831C24.983 69.0134 27.5556 67.9208 29.3776 66.2975C31.1995 64.6742 32.4662 62.6373 33.1778 60.1868C33.733 58.5244 34.1474 56.706 34.4054 54.7238C34.8042 51.6645 34.9997 48.371 34.9997 44.8513C34.9997 41.3316 34.5696 38.085 33.7017 35.6188C32.8337 33.1527 31.7312 31.2952 30.3941 30.0544C29.057 28.8135 27.6338 28.1891 26.1168 28.1891C23.8727 28.1891 21.9022 29.2505 20.2054 31.3655C19.0012 32.8717 17.7579 35.0257 16.4677 37.8196L15.8265 39.1308C14.6849 41.9871 14.114 44.4689 14.114 46.5917C14.114 47.099 14.1453 47.5906 14.2079 48.0589C14.5519 50.486 15.4199 52.3512 16.7961 53.6546C18.1723 54.9579 19.7128 55.7149 21.4096 55.9178C21.8162 55.9568 22.2228 55.9802 22.6372 55.9802C24.7797 55.9802 26.8675 55.4261 28.8849 54.3257C31.2777 52.999 32.4584 51.3211 33.8659 49.2763C32.8416 53.7638 28.8224 58.9225 18.5946 58.9225M23.9978 45.6708C18.1489 45.6708 16.4286 41.2847 16.7726 39.958C17.8439 35.8608 22.3713 35.8608 22.6998 35.8608C28.7285 35.8608 32.2004 41.0662 33.1622 42.7988C29.1039 44.6406 26.4687 45.5927 23.99 45.663" fill="#00FF99"/>
<path d="M70.2184 23.0929L74.5973 17.1304L67.7005 12.0498L63.4468 18.2621L70.2184 23.0929Z" fill="#00FF99"/>
<path d="M77.8423 53.6233C77.9127 53.2331 77.9831 52.8351 78.0456 52.4371C80.5478 52.3825 83.7538 52.5542 84.8955 53.756L85.2942 53.3346L87.2491 44.0943C87.3273 43.7431 87.1787 43.3841 86.8816 43.1812C85.302 42.2915 82.6591 41.9715 78.5774 42.1354C78.4366 39.521 78.0378 37.2733 77.381 35.4003C76.5443 33.0278 75.4731 31.2406 74.1672 30.0466C72.8614 28.8525 71.493 28.2594 70.062 28.2594C68.8578 28.2594 67.7866 28.5403 66.8639 29.1022C65.9334 29.6641 65.1045 30.3978 64.3695 31.3187C63.6345 32.2396 62.9776 33.2385 62.3912 34.3155C61.8125 35.4003 61.2652 36.4695 60.7491 37.5231L60.1392 38.7796C59.0366 41.5345 58.4815 43.8446 58.4815 45.7176C58.4815 46.1702 58.5127 46.5839 58.5753 46.9741C58.9037 49.05 59.7404 50.6031 61.0853 51.6254C62.7508 52.9053 64.6901 53.6624 66.9186 53.6624C69.4677 53.6624 70.8048 53.4126 73.5416 52.7259C73.2601 52.999 69.2566 56.7138 60.7725 56.7138C48.629 56.7138 45.556 46.3341 45.556 46.3341L44.9304 46.4824L41.1849 54.1306C43.4682 59.4141 49.8019 67.2887 60.0375 67.2887C73.7841 67.2887 77.3341 56.4485 77.858 53.6233M72.7362 42.5725C71.2036 42.7285 69.1862 43.0485 66.121 43.1344C65.4251 43.15 64.7214 43.0797 64.0567 42.8612C63.439 42.6661 62.8838 42.3773 62.399 42.0105C61.5936 41.4018 61.187 40.6214 61.187 39.6849C61.187 38.6079 61.7187 37.7572 62.7821 37.1485C63.5954 36.6568 64.6979 36.3836 66.0897 36.3836C71.4539 36.3836 75.7624 40.5355 76.7867 42.2213C75.5513 42.2993 74.1985 42.4164 72.7284 42.5647" fill="#00FF99"/>
<path d="M48.3866 71.7918C48.7306 69.8641 48.9183 68.3657 48.9417 67.2887C45.9782 69.6768 43.2258 71.4718 40.6844 72.658C36.3134 74.5935 32.4428 75.491 27.6964 75.0305C26.0699 74.734 24.8579 74.3828 24.0604 73.9692L24.0838 74.5311L30.8476 80.9696C31.8954 81.9608 33.0761 82.8036 34.3898 83.4046C42.1858 86.9555 46.8227 80.0643 48.3866 71.7918Z" fill="#00FF99"/>
<path d="M24.334 8.21013C24.42 8.55352 24.4826 8.78765 24.5295 8.86569H25.1863C25.1316 8.75643 25.0456 8.38963 24.9518 8.06965C24.8814 7.81211 24.7719 7.62481 24.5764 7.54676V7.53115C24.8188 7.44531 25.0769 7.19557 25.0769 6.83657C25.0769 6.57903 24.983 6.38392 24.8188 6.25125C24.6155 6.09516 24.3262 6.03273 23.904 6.03273C23.5677 6.03273 23.2628 6.05614 23.0516 6.08736V8.86569H23.685V7.75748H23.8805C24.1385 7.75748 24.2636 7.85893 24.334 8.21013ZM23.6772 7.29703V6.5166C23.7241 6.50879 23.8101 6.49318 23.9665 6.49318C24.2558 6.49318 24.4357 6.62585 24.4357 6.8834C24.4357 7.14094 24.248 7.28922 23.9274 7.28922H23.6772V7.29703Z" fill="#00FF99"/>
<path d="M27.0474 7.34384C27.0474 5.69714 25.7103 4.3626 24.0604 4.3626C22.4105 4.3626 21.0733 5.69714 21.0733 7.34384C21.0733 8.99055 22.4105 10.3251 24.0604 10.3251C25.7103 10.3251 27.0474 8.99055 27.0474 7.34384ZM21.3861 7.34384C21.3861 5.87664 22.5825 4.67478 24.0604 4.67478C25.5382 4.67478 26.7346 5.86883 26.7346 7.34384C26.7346 8.81886 25.5382 10.0129 24.0604 10.0129C22.5825 10.0129 21.3861 8.81886 21.3861 7.34384Z" fill="#00FF99"/>
</svg>
